<svg width="229" height="48" viewBox="0 0 229 48" fill="none" xmlns="http://www.w3.org/2000/svg">
<g clip-path="url(#clip0_1_977)">
<path d="M196.391 31.6421L195.406 33.2651H228.07L228.071 31.6421H196.391Z" fill="black"/>
<path d="M0.948242 31.6421L0.949245 33.2651H33.6132L32.6272 31.6421H0.948242Z" fill="black"/>
<mask id="mask0_1_977" style="mask-type:luminance" maskUnits="userSpaceOnUse" x="0" y="14" width="229" height="21">
<path d="M228.07 14.0001H0.948242V34.5171H228.07V14.0001Z" fill="white"/>
</mask>
<g mask="url(#mask0_1_977)">
<path d="M80.0103 33.2281V31.9891C78.6933 33.7771 76.6713 33.7411 75.0723 33.2711C73.6223 32.8441 72.5643 31.6241 71.9893 30.2261C70.6733 27.0271 71.4543 22.7341 74.8633 21.2231C76.4553 20.5161 78.7663 20.7991 79.9783 22.2561C79.9783 22.2561 79.9943 17.1971 79.9803 16.9471H83.2283L83.2353 33.2271L80.0103 33.2281ZM75.1933 30.0351C75.8693 31.0881 77.2433 31.4191 78.1743 30.9581C80.7963 29.6581 80.5663 25.2891 78.7003 23.7561C77.3903 22.6811 75.2643 23.5741 74.6173 25.7271C74.2493 26.9531 74.3753 28.7611 75.1933 30.0351Z" fill="black"/>
</g>
<mask id="mask1_1_977" style="mask-type:luminance" maskUnits="userSpaceOnUse" x="0" y="14" width="229" height="21">
<path d="M228.07 14.0001H0.948242V34.5171H228.07V14.0001Z" fill="white"/>
</mask>
<g mask="url(#mask1_1_977)">
<path d="M42.3902 30.7011C44.5902 31.2211 46.4062 30.0121 46.8182 28.1911H50.1282C49.7482 30.4911 48.2792 32.2331 46.2562 33.0421C42.9392 34.3691 39.0722 33.4821 36.8732 30.3601C34.8972 27.5541 34.7912 24.0721 35.9562 20.9641C37.4482 16.9861 42.0252 14.8301 45.9972 16.3961C48.0842 17.2171 49.3782 18.8311 50.1292 21.4491C50.1362 21.4501 46.7942 21.4461 46.7942 21.4461C46.2812 19.8641 45.0212 18.5731 43.1632 18.6251C41.9632 18.6591 40.8342 19.1231 39.8362 20.4391C37.4252 23.6181 38.0152 29.6681 42.3902 30.7011Z" fill="black"/>
</g>
<mask id="mask2_1_977" style="mask-type:luminance" maskUnits="userSpaceOnUse" x="0" y="14" width="229" height="21">
<path d="M228.07 14.0001H0.948242V34.5171H228.07V14.0001Z" fill="white"/>
</mask>
<g mask="url(#mask2_1_977)">
<path d="M54.6613 21.2371L54.7823 22.5471C55.5653 21.3341 57.2503 20.8751 58.4273 21.0641L58.4253 23.6421C57.3353 23.4941 54.9323 24.0311 54.8413 26.4631L54.8393 30.3591L54.8443 33.2511H51.6513L51.6483 21.2391L54.6613 21.2371Z" fill="black"/>
</g>
<mask id="mask3_1_977" style="mask-type:luminance" maskUnits="userSpaceOnUse" x="0" y="14" width="229" height="21">
<path d="M228.07 14.0001H0.948242V34.5171H228.07V14.0001Z" fill="white"/>
</mask>
<g mask="url(#mask3_1_977)">
<path d="M93.4813 33.2391C92.5593 33.2391 90.9033 32.9831 90.9033 29.3641L90.8983 23.4081L89.2873 23.4091L89.2863 21.2121L90.8963 21.2131V17.2781H94.2013L94.1993 21.2131L96.2813 21.2121L96.2823 23.4231L94.1723 23.4211L94.1773 29.3131C94.1773 30.9771 94.8363 30.9391 96.5293 30.9161L96.5283 33.2461L93.4813 33.2391Z" fill="black"/>
</g>
<mask id="mask4_1_977" style="mask-type:luminance" maskUnits="userSpaceOnUse" x="0" y="14" width="229" height="21">
<path d="M228.07 14.0001H0.948242V34.5171H228.07V14.0001Z" fill="white"/>
</mask>
<g mask="url(#mask4_1_977)">
<path d="M150.902 32.2421C150.885 32.2351 150.59 32.5351 150.472 32.6241C147.928 34.5171 144.742 33.5241 143.971 31.1071C143.754 30.4271 143.533 29.3301 143.58 28.2581L143.574 21.2211H146.748L146.746 27.9891C146.746 30.5961 148.026 31.0311 149.095 30.7841C149.893 30.5981 150.904 30.3081 150.904 28.3891L150.907 21.2191L154.07 21.2211V33.2451L150.991 33.2371C150.97 33.2331 150.917 32.2491 150.902 32.2421Z" fill="black"/>
</g>
<mask id="mask5_1_977" style="mask-type:luminance" maskUnits="userSpaceOnUse" x="0" y="14" width="229" height="21">
<path d="M228.07 14.0001H0.948242V34.5171H228.07V14.0001Z" fill="white"/>
</mask>
<g mask="url(#mask5_1_977)">
<path d="M118.123 22.4271C118.199 22.7411 118.248 23.0671 118.248 23.4041C118.248 25.4311 116.815 27.1061 114.908 27.5121C113.846 25.3381 111.959 24.5561 110.335 24.5591C110.323 24.5271 110.315 24.4991 110.303 24.4651C110.064 23.8121 109.735 22.8731 110.243 21.5661C110.928 20.1601 112.358 19.1831 114.027 19.1831C115.116 19.1831 116.101 19.6061 116.85 20.2851L113.112 14.0001H107.386L103.599 20.2971C104.349 19.6111 105.34 19.1841 106.437 19.1841C107.819 19.1841 109.03 19.8601 109.797 20.8881C108.932 22.6601 109.391 23.9741 109.658 24.7021C109.699 24.8151 109.735 24.9121 109.761 24.9961L109.798 25.1211C109.048 26.7681 107.326 27.6301 105.812 27.5561C105.79 27.5531 105.766 27.5521 105.742 27.5471C105.657 27.5411 105.576 27.5221 105.493 27.5101C103.617 27.0811 102.215 25.4101 102.215 23.4051C102.215 23.0391 102.276 22.6911 102.364 22.3521L98.7402 28.3751L101.695 33.2491H109.054C107.324 32.7221 106.057 31.1321 106.057 29.2291C106.057 28.8791 106.114 28.5451 106.194 28.2211C107.906 28.1411 109.732 27.1091 110.497 25.2371C111.413 25.2741 113.133 25.6301 114.189 27.6081C114.185 27.6091 114.181 27.6101 114.176 27.6101C114.384 28.1091 114.5 28.6551 114.5 29.2291C114.5 31.1311 113.234 32.7211 111.504 33.2491H118.705L121.661 28.3751L118.123 22.4271Z" fill="black"/>
</g>
<mask id="mask6_1_977" style="mask-type:luminance" maskUnits="userSpaceOnUse" x="0" y="14" width="229" height="21">
<path d="M228.07 14.0001H0.948242V34.5171H228.07V14.0001Z" fill="white"/>
</mask>
<g mask="url(#mask6_1_977)">
<path d="M88.2933 21.2222H85.1353V33.2282H88.2933V21.2222Z" fill="black"/>
</g>
<mask id="mask7_1_977" style="mask-type:luminance" maskUnits="userSpaceOnUse" x="0" y="14" width="229" height="21">
<path d="M228.07 14.0001H0.948242V34.5171H228.07V14.0001Z" fill="white"/>
</mask>
<g mask="url(#mask7_1_977)">
<path d="M88.2282 16.9352H85.1622V19.7072H88.2282V16.9352Z" fill="black"/>
</g>
<mask id="mask8_1_977" style="mask-type:luminance" maskUnits="userSpaceOnUse" x="0" y="14" width="229" height="21">
<path d="M228.07 14.0001H0.948242V34.5171H228.07V14.0001Z" fill="white"/>
</mask>
<g mask="url(#mask8_1_977)">
<path d="M192.116 16.8472H188.966V33.2472H192.116V16.8472Z" fill="black"/>
</g>
<mask id="mask9_1_977" style="mask-type:luminance" maskUnits="userSpaceOnUse" x="0" y="14" width="229" height="21">
<path d="M228.07 14.0001H0.948242V34.5171H228.07V14.0001Z" fill="white"/>
</mask>
<g mask="url(#mask9_1_977)">
<path d="M65.5232 19.7311L67.6552 16.7191H64.0552L63.0072 19.7311H65.5232Z" fill="black"/>
</g>
<mask id="mask10_1_977" style="mask-type:luminance" maskUnits="userSpaceOnUse" x="0" y="14" width="229" height="21">
<path d="M228.07 14.0001H0.948242V34.5171H228.07V14.0001Z" fill="white"/>
</mask>
<g mask="url(#mask10_1_977)">
<path d="M178.75 28.1061C178.75 31.4381 183.549 31.6201 184.11 29.5561L187.295 29.5501C187.024 31.1391 185.941 32.1871 184.654 32.9511C183.085 33.8811 180.675 33.7311 179.01 32.9511C177.331 32.1631 176.153 30.7361 175.652 28.8811C174.856 25.9361 176.028 23.1231 178.727 21.5581C180.521 20.5161 182.215 20.8261 183.235 21.1411C185.707 21.9031 187.759 24.5601 187.428 28.1041L178.75 28.1061ZM180.288 25.7671L184.298 25.7661C184.294 25.7611 184.275 24.8691 183.748 24.3191C183.283 23.8311 183.007 23.6541 182.459 23.5101C180.547 23.0041 179.223 24.0421 178.831 25.2341C178.756 25.4631 178.66 25.7741 178.672 25.7711L180.288 25.7671Z" fill="black"/>
</g>
<mask id="mask11_1_977" style="mask-type:luminance" maskUnits="userSpaceOnUse" x="0" y="14" width="229" height="21">
<path d="M228.07 14.0001H0.948242V34.5171H228.07V14.0001Z" fill="white"/>
</mask>
<g mask="url(#mask11_1_977)">
<path d="M159.393 33.2391C158.471 33.2391 156.816 32.9831 156.816 29.3641L156.81 23.4081L155.199 23.4091V21.2121L156.808 21.2131V17.2781H160.115L160.111 21.2131L162.194 21.2121V23.4231L160.086 23.4211L160.09 29.3131C160.09 30.9771 160.749 30.9391 162.444 30.9161L162.442 33.2461L159.393 33.2391Z" fill="black"/>
</g>
<mask id="mask12_1_977" style="mask-type:luminance" maskUnits="userSpaceOnUse" x="0" y="14" width="229" height="21">
<path d="M228.07 14.0001H0.948242V34.5171H228.07V14.0001Z" fill="white"/>
</mask>
<g mask="url(#mask12_1_977)">
<path d="M134.646 33.2171L138.072 21.2221V33.2261H141.231V16.9211H136.32L133.064 28.4101L129.808 16.9211H124.898V33.2261H128.056V21.2221L131.482 33.2171H134.646Z" fill="black"/>
</g>
<mask id="mask13_1_977" style="mask-type:luminance" maskUnits="userSpaceOnUse" x="0" y="14" width="229" height="21">
<path d="M228.07 14.0001H0.948242V34.5171H228.07V14.0001Z" fill="white"/>
</mask>
<g mask="url(#mask13_1_977)">
<path d="M170.781 32.2421C170.764 32.2351 170.469 32.5351 170.351 32.6241C167.807 34.5171 164.619 33.5241 163.85 31.1071C163.631 30.4271 163.411 29.3301 163.458 28.2581L163.453 21.2211H166.626L166.624 27.9891C166.624 30.5961 167.903 31.0311 168.972 30.7841C169.771 30.5981 170.783 30.3081 170.783 28.3891L170.785 21.2191L173.947 21.2211V33.2451L170.869 33.2371C170.849 33.2331 170.795 32.2491 170.781 32.2421Z" fill="black"/>
</g>
<mask id="mask14_1_977" style="mask-type:luminance" maskUnits="userSpaceOnUse" x="0" y="14" width="229" height="21">
<path d="M228.07 14.0001H0.948242V34.5171H228.07V14.0001Z" fill="white"/>
</mask>
<g mask="url(#mask14_1_977)">
<path d="M61.6052 28.1051C61.6052 31.4381 66.4062 31.6201 66.9662 29.5561L70.1512 29.5501C69.8812 31.1401 68.7972 32.1871 67.5092 32.9511C65.9422 33.8811 63.5312 33.7311 61.8672 32.9511C60.1872 32.1631 59.0092 30.7361 58.5082 28.8811C57.7122 25.9361 58.8852 23.1231 61.5832 21.5581C63.3772 20.5161 65.0722 20.8261 66.0912 21.1411C68.5622 21.9031 70.6172 24.5601 70.2852 28.1041L61.6052 28.1051ZM63.1442 25.8571L67.1552 25.8561C67.1512 25.8521 67.1322 24.9601 66.6062 24.4091C66.1402 23.9211 65.8642 23.7451 65.3162 23.6001C63.4042 23.0961 62.0802 24.1331 61.6882 25.3241C61.6132 25.5541 61.5162 25.8641 61.5292 25.8611L63.1442 25.8571Z" fill="black"/>
</g>
</g>
<defs>
<clipPath id="clip0_1_977">
<rect width="227.123" height="20.517" fill="white" transform="translate(0.948242 14.0001)"/>
</clipPath>
</defs>
</svg>
