<svg width="124" height="30" viewBox="0 0 124 30" fill="none" xmlns="http://www.w3.org/2000/svg">
<path d="M14.3541 5.83377C9.21122 5.83377 6.56299 9.4415 6.56299 14.9298C6.56299 20.6485 9.78692 23.4886 14.3158 23.4886C18.9981 23.4886 21.0707 20.9555 21.3393 18.0003H13.8168V12.5503H27.1731V28.8618H21.8383L21.4928 26.2903C19.9576 28.0942 16.8872 29.284 13.5098 29.284C5.56511 29.284 0 23.4502 0 14.7379C0 6.17919 5.71863 0 14.5077 0C21.3009 0 26.5206 3.99153 27.1731 10.1323H20.6485C19.9193 7.13869 17.3094 5.83377 14.3541 5.83377Z" fill="white"/>
<path d="M44.0135 9.67178V15.2369H42.1329C38.7555 15.2369 36.7213 16.7337 36.7213 20.5333V28.8618H30.8108V9.71016H36.3759L36.6829 12.5503C37.4889 10.6697 39.1777 9.40312 41.7491 9.40312C42.44 9.40312 43.2076 9.47988 44.0135 9.67178Z" fill="white"/>
<path d="M54.5768 29.3608C48.7814 29.3608 44.6363 25.1389 44.6363 19.2284C44.6363 13.2411 48.6662 9.0577 54.4616 9.0577C60.4873 9.0577 64.2485 13.0108 64.2485 19.2668V20.7636L50.3166 20.8404C50.662 23.3735 52.0821 24.5632 54.6919 24.5632C56.9179 24.5632 58.4915 23.7573 58.9137 22.3756H64.3253C63.6345 26.6358 59.8348 29.3608 54.5768 29.3608ZM54.5 13.8552C52.1588 13.8552 50.8539 14.8915 50.3933 17.1943H58.3764C58.3764 15.1601 56.8796 13.8552 54.5 13.8552Z" fill="white"/>
<path d="M75.8852 29.3608C70.0898 29.3608 65.9447 25.1389 65.9447 19.2284C65.9447 13.2411 69.9747 9.0577 75.7701 9.0577C81.7957 9.0577 85.557 13.0108 85.557 19.2668V20.7636L71.625 20.8404C71.9704 23.3735 73.3905 24.5632 76.0003 24.5632C78.2264 24.5632 79.8 23.7573 80.2221 22.3756H85.6337C84.9429 26.6358 81.1433 29.3608 75.8852 29.3608ZM75.8084 13.8552C73.4672 13.8552 72.1623 14.8915 71.7018 17.1943H79.6848C79.6848 15.1601 78.188 13.8552 75.8084 13.8552Z" fill="white"/>
<path d="M94.2 28.8618H88.2895V9.67178H93.8546L94.2384 11.6675C95.4281 10.0172 97.6158 9.0577 100.111 9.0577C104.678 9.0577 107.326 11.9746 107.326 17.0024V28.8618H101.415V18.4224C101.415 16.0045 100.072 14.4309 98.038 14.4309C95.6968 14.4309 94.2 15.9661 94.2 18.3457V28.8618Z" fill="white"/>
<path d="M124 9.67178V15.2369H122.119C118.742 15.2369 116.708 16.7337 116.708 20.5333V28.8618H110.797V9.71016H116.362L116.669 12.5503C117.475 10.6697 119.164 9.40312 121.736 9.40312C122.426 9.40312 123.194 9.47988 124 9.67178Z" fill="white"/>
</svg>
