<svg width="124" height="30" viewBox="0 0 124 30" fill="none" xmlns="http://www.w3.org/2000/svg">
<path d="M14.3541 6.15335C9.21122 6.15335 6.56299 9.76108 6.56299 15.2494C6.56299 20.9681 9.78692 23.8082 14.3158 23.8082C18.9981 23.8082 21.0707 21.2751 21.3393 18.3198H13.8168V12.8699H27.1731V29.1814H21.8383L21.4928 26.6099C19.9576 28.4138 16.8872 29.6036 13.5098 29.6036C5.56511 29.6036 0 23.7698 0 15.0575C0 6.49877 5.71863 0.31958 14.5077 0.31958C21.3009 0.31958 26.5206 4.31111 27.1731 10.4519H20.6485C19.9193 7.45827 17.3094 6.15335 14.3541 6.15335Z" fill="#004D26"/>
<path d="M44.0135 9.99136V15.5565H42.1329C38.7555 15.5565 36.7213 17.0533 36.7213 20.8529V29.1814H30.8108V10.0297H36.3759L36.6829 12.8699C37.4889 10.9892 39.1777 9.7227 41.7491 9.7227C42.44 9.7227 43.2076 9.79946 44.0135 9.99136Z" fill="#004D26"/>
<path d="M54.5768 29.6803C48.7814 29.6803 44.6363 25.4585 44.6363 19.548C44.6363 13.5607 48.6662 9.37728 54.4616 9.37728C60.4873 9.37728 64.2485 13.3304 64.2485 19.5864V21.0832L50.3166 21.16C50.662 23.693 52.0821 24.8828 54.6919 24.8828C56.9179 24.8828 58.4915 24.0768 58.9137 22.6952H64.3253C63.6345 26.9553 59.8348 29.6803 54.5768 29.6803ZM54.5 14.1748C52.1588 14.1748 50.8539 15.211 50.3933 17.5138H58.3764C58.3764 15.4797 56.8796 14.1748 54.5 14.1748Z" fill="#004D26"/>
<path d="M75.8852 29.6803C70.0898 29.6803 65.9447 25.4585 65.9447 19.548C65.9447 13.5607 69.9747 9.37728 75.7701 9.37728C81.7957 9.37728 85.557 13.3304 85.557 19.5864V21.0832L71.625 21.16C71.9704 23.693 73.3905 24.8828 76.0003 24.8828C78.2264 24.8828 79.8 24.0768 80.2221 22.6952H85.6337C84.9429 26.9553 81.1433 29.6803 75.8852 29.6803ZM75.8084 14.1748C73.4672 14.1748 72.1623 15.211 71.7018 17.5138H79.6848C79.6848 15.4797 78.188 14.1748 75.8084 14.1748Z" fill="#004D26"/>
<path d="M94.2 29.1814H88.2895V9.99136H93.8546L94.2384 11.9871C95.4281 10.3368 97.6158 9.37728 100.111 9.37728C104.678 9.37728 107.326 12.2942 107.326 17.322V29.1814H101.415V18.742C101.415 16.3241 100.072 14.7505 98.038 14.7505C95.6968 14.7505 94.2 16.2857 94.2 18.6653V29.1814Z" fill="#004D26"/>
<path d="M124 9.99136V15.5565H122.119C118.742 15.5565 116.708 17.0533 116.708 20.8529V29.1814H110.797V10.0297H116.362L116.669 12.8699C117.475 10.9892 119.164 9.7227 121.736 9.7227C122.426 9.7227 123.194 9.79946 124 9.99136Z" fill="#004D26"/>
</svg>
