<svg width="59" height="28" viewBox="0 0 59 28" fill="none" xmlns="http://www.w3.org/2000/svg">
<path d="M0.435928 26.8706H5.46166V1.12877H0.435928V26.8706Z" fill="black"/>
<path d="M54.2787 1.1298V16.5507C53.4306 15.6081 39.6259 0.27042 39.6259 0.27042H38.8581V26.8716H43.5258V11.6596C44.3757 12.5929 58.1462 27.7301 58.1462 27.7301H58.9482V1.1298H54.2787Z" fill="black"/>
<path d="M28.2346 19.4307L27.9679 19.4205V22.0966C26.293 22.7324 25.0121 22.9856 23.4673 22.9856C17.9718 22.9856 14.4217 19.3031 14.4217 13.6053C14.4217 8.19765 17.7651 4.83496 23.1452 4.83496C26.1878 4.83496 28.6979 5.96325 30.6054 8.18472L31.0216 8.66709L31.3907 2.80386L31.2763 2.71976C30.467 2.12928 30.0867 1.94077 29.1187 1.50924C27.1023 0.628595 25.3904 0.270054 23.2163 0.270054C19.3071 0.270054 15.7773 1.63029 13.2773 4.10125C10.7746 6.57314 9.39776 10.0634 9.39776 13.9278C9.39776 21.9266 15.0879 27.7297 22.9311 27.7297C24.8958 27.7297 27.1162 27.3869 29.019 26.7872C30.3498 26.3806 31.0954 26.0747 32.8119 25.231L32.9567 25.1617V18.6498L32.6116 18.7746C31.2431 19.2597 29.772 19.4806 28.2346 19.4307Z" fill="black"/>
<path d="M27.249 11.1662C27.2379 11.1616 27.2241 11.1597 27.2139 11.1551C24.0126 10.3235 20.7587 10.7957 18.3547 12.386C19.6873 14.9336 22.2943 16.9158 25.4873 17.7465C25.4965 17.7484 25.5131 17.753 25.5131 17.753C28.7154 18.5837 31.9646 18.1125 34.3677 16.524C33.0407 13.9772 30.4392 11.9942 27.249 11.1662Z" fill="black"/>
</svg>
