<svg width="70" height="48" viewBox="0 0 70 48" fill="none" xmlns="http://www.w3.org/2000/svg">
<g clip-path="url(#clip0_1_955)">
<mask id="mask0_1_955" style="mask-type:luminance" maskUnits="userSpaceOnUse" x="-8" y="-17" width="95" height="82">
<path d="M86.2668 -16.661H-7.00928V64.4762H86.2668V-16.661Z" fill="white"/>
</mask>
<g mask="url(#mask0_1_955)">
<path d="M16.131 0.819956L30.9409 7.56376H53.6318L55.5095 4.31087C56.6467 2.35384 55.2715 0.00012207 53.2087 0.00012207H16.2897C15.7872 0.00012207 15.6814 0.608386 16.131 0.819956ZM17.1624 30.1224L36.5211 29.7522C38.8748 29.6993 41.6252 28.3505 42.8946 26.1819L45.8037 21.1307L16.1839 29.1439C16.7921 29.4084 17.0566 29.7522 17.1624 30.1224ZM67.8864 10.4464H30.9409L0.897925 29.4613C0.527677 29.7522 0.845032 30.3076 1.26817 30.2018L68.1244 12.0861C68.4417 12.0067 68.7326 11.7158 68.7326 11.2662C68.7326 10.7638 68.3095 10.4464 67.8864 10.4464Z" fill="black"/>
</g>
<mask id="mask1_1_955" style="mask-type:luminance" maskUnits="userSpaceOnUse" x="-8" y="-17" width="95" height="82">
<path d="M86.2668 -16.661H-7.00928V64.4762H86.2668V-16.661Z" fill="white"/>
</mask>
<g mask="url(#mask1_1_955)">
<path d="M31.7607 30.969L36.997 36.7872H38.6102V28.5095H36.9177V34.1954L31.7871 28.5095H30.0945V36.7872H31.7871V30.969H31.7607ZM52.9441 25.7326H57.8896L58.8681 24.1459H54.1078V17.4814H52.3359V25.1508C52.3359 25.4946 52.5474 25.7326 52.9441 25.7326ZM12.64 39.4847C11.635 39.4847 10.5243 39.5111 9.65157 39.5376V47.8153H11.397V45.3558C11.8202 45.3558 12.402 45.3558 12.7458 45.3558C15.3904 45.3558 17.2945 44.6946 17.2945 42.3673C17.321 40.3045 15.6813 39.4847 12.64 39.4847ZM15.1524 43.2665C14.6499 43.769 13.6714 43.769 12.64 43.769C12.2698 43.769 11.8202 43.769 11.397 43.769V41.1244C11.8202 41.1244 12.2698 41.1244 12.64 41.1244C13.9888 41.1244 14.7293 41.1773 15.2053 41.6533C15.364 41.812 15.4962 42.1293 15.4962 42.3938C15.4962 42.764 15.3904 43.0285 15.1524 43.2665ZM56.1441 36.9459C58.5507 36.9459 60.2169 35.7029 60.2169 33.1905V28.5095H58.4714V33.0583C58.4714 34.5392 57.7309 35.3855 56.1441 35.3855C54.5838 35.3855 53.8169 34.5392 53.8169 33.0583V28.5095H52.0714V33.1905C52.0714 35.6764 53.7375 36.9459 56.1441 36.9459ZM45.3012 36.7872C46.4383 36.7872 47.4697 36.4434 48.1838 35.9673L48.5012 36.3905C48.7127 36.7078 49.1359 36.7872 49.5855 36.7872H51.0135L49.4003 34.9095C50.0086 34.2483 50.2995 33.4021 50.2995 32.5822C50.2995 30.2285 48.3689 28.3773 45.3012 28.3773C42.2598 28.3773 40.3028 30.255 40.3028 32.5822C40.3028 34.9095 42.2598 36.7872 45.3012 36.7872ZM45.3012 29.9111C47.1259 29.9111 48.5012 30.9954 48.5012 32.5558C48.5012 34.1161 47.1259 35.2004 45.3012 35.2004C43.5028 35.2004 42.1276 34.1161 42.1276 32.5558C42.1276 30.9954 43.4764 29.9111 45.3012 29.9111ZM21.0499 35.2797H26.1276L26.6301 36.2583C26.8681 36.7607 27.1061 36.7872 27.7408 36.7872H28.7722L24.435 28.4302H22.7425L18.4053 36.7872H20.283L21.0499 35.2797ZM23.5888 30.2285L25.3342 33.693H21.8433L23.5888 30.2285ZM23.0069 39.3789C19.8863 39.3789 18.0086 41.3095 18.0086 43.6897C18.0086 46.0698 19.8863 48.0004 23.0069 48.0004C26.1276 48.0004 28.0053 46.0698 28.0053 43.6897C28.0053 41.3095 26.154 39.3789 23.0069 39.3789ZM23.0069 46.4136C21.1293 46.4136 19.8069 45.3293 19.8069 43.6897C19.8069 42.0235 21.1293 40.9657 23.0069 40.9657C24.8582 40.9657 26.1805 42.05 26.1805 43.6897C26.1805 45.3293 24.8582 46.4136 23.0069 46.4136ZM15.9987 32.5293C16.9772 32.2384 17.559 31.6037 17.559 30.6252C17.559 29.1178 16.2631 28.4566 13.7507 28.4566C12.5342 28.4566 10.7359 28.4566 9.62512 28.5095V36.7872C10.9474 36.8401 12.402 36.8401 13.6185 36.8401C16.078 36.8401 17.797 36.2847 17.797 34.4864C17.8235 33.5078 17.083 32.7673 15.9987 32.5293ZM11.397 29.9376H14.0417C15.0995 29.9376 15.7607 30.1756 15.7607 30.8368C15.7607 31.683 15.0731 31.8417 13.7772 31.8417H11.3706V29.9376H11.397ZM13.9094 35.3326H11.397V33.3492H14.2532C15.2317 33.3492 15.9722 33.5607 15.9722 34.3277C15.9987 35.174 15.1259 35.3326 13.9094 35.3326ZM56.4879 39.5376H54.7425V47.207C54.7425 47.5508 54.954 47.7888 55.3507 47.7888H61.2747V46.2021H56.5144V39.5376H56.4879ZM62.2797 47.2335C62.2797 47.5773 62.4912 47.8153 62.8879 47.8153H69.6317V46.2285H64.0516V44.4037H69.0499V42.8169H64.0516V41.1508H69.6317V39.564H62.3061V47.2335H62.2797ZM62.2797 36.1789C62.2797 36.5227 62.4912 36.7607 62.8879 36.7607H69.6317V35.174H64.0516V33.3492H69.0499V31.7624H64.0516V30.0963H69.6317V28.5095H62.3061V36.1789H62.2797ZM67.754 25.2037C67.9921 25.7062 68.2301 25.7326 68.8648 25.7326H69.8962L65.559 17.3756H63.8664L59.5293 25.7326H61.4069L62.1739 24.2252H67.2516L67.754 25.2037ZM62.9673 22.6913L64.7127 19.2268L66.4582 22.6913H62.9673ZM30.9673 41.7591C30.9673 41.1508 31.7607 40.8599 32.845 40.8599C33.6912 40.8599 34.8549 41.283 35.1193 41.4682L36.0185 40.1459C35.4896 39.8021 34.035 39.4054 32.8978 39.4054C30.7821 39.4054 29.1689 40.5161 29.1689 42.05C29.1689 44.9326 34.7755 43.9277 34.7755 45.5938C34.7755 46.2814 33.7706 46.5194 32.9243 46.5194C31.7607 46.5194 30.4383 46.1227 29.6185 45.488L28.7193 46.8103C29.8301 47.5773 31.5226 48.0004 32.7656 48.0004C34.8549 48.0004 36.6003 47.0219 36.6003 45.4087C36.5739 42.4467 30.9673 43.293 30.9673 41.7591ZM44.9309 39.5376H36.8648V41.1244H40.0119V47.7888H41.7574V41.1244H44.9309V39.5376ZM47.8664 39.4583L43.5293 47.8153H45.4069L46.1739 46.3078H51.2516L51.754 47.2864C51.9921 47.7888 52.2301 47.8153 52.8648 47.8153H53.8962L49.559 39.4583H47.8664ZM46.9673 44.7475L48.7127 41.283L50.4582 44.7475H46.9673Z" fill="black"/>
</g>
</g>
<defs>
<clipPath id="clip0_1_955">
<rect width="69.1618" height="48" fill="white" transform="translate(0.733398 0.00012207)"/>
</clipPath>
</defs>
</svg>
