<svg width="125" height="48" viewBox="0 0 125 48" fill="none" xmlns="http://www.w3.org/2000/svg">
<path d="M16.6914 4.67981C10.7526 4.67981 5.93872 9.49547 5.93872 15.4325C5.93872 21.3722 10.7526 26.186 16.6914 26.186C22.632 26.186 27.4467 21.3722 27.4467 15.4325C27.4467 9.49547 22.632 4.67981 16.6914 4.67981ZM16.6914 12.18C15.6285 12.18 14.7664 12.9594 14.7664 13.9214C14.7664 14.2256 14.8519 14.51 15.0031 14.7584C13.9753 14.4677 13.3615 13.9799 13.3156 13.2096C13.2338 11.7814 14.6161 10.3018 16.6914 10.3018C18.7685 10.3018 20.1499 11.7814 20.0653 13.2096C20.0212 13.9799 19.4092 14.4677 18.3797 14.7584C18.5309 14.51 18.6164 14.2256 18.6164 13.9214C18.6164 12.9594 17.7533 12.18 16.6914 12.18ZM21.4692 12.756C21.4818 12.6183 21.4908 12.4788 21.4908 12.3366C21.4908 10.0525 19.3408 8.20133 16.6914 8.20133C14.0401 8.20133 11.8937 10.0525 11.8937 12.3366C11.8937 12.4788 11.9 12.6183 11.9171 12.756C11.4554 12.1116 11.1909 11.3683 11.1909 10.5754C11.1909 8.14554 13.6522 6.17913 16.6914 6.17913C19.7305 6.17913 22.1937 8.14554 22.1937 10.5754C22.1937 11.3683 21.9291 12.1116 21.4692 12.756Z" fill="black"/>
<path d="M30.6016 15.4415H33.6812V23.0245H33.7415C34.4057 22.0256 35.374 21.4532 36.5809 21.4532C38.0604 21.4532 38.8164 22.0256 39.3275 22.8419C39.7208 23.4754 39.8108 24.3511 39.8108 26.5551V32.385C39.8108 34.0769 39.6596 35.012 39.3005 35.677C38.7543 36.6751 37.8462 37.1259 36.6097 37.1259C35.0716 37.1259 34.4678 36.4312 33.6812 35.5564V36.9469H30.6016V15.4415ZM36.7312 26.3463C36.7312 25.3779 36.3991 24.532 35.2201 24.532C34.3454 24.532 33.6812 25.2294 33.6812 26.1942V32.1456C33.6812 33.2624 34.286 34.0445 35.2201 34.0445C36.2785 34.0445 36.7312 33.2012 36.7312 31.9602V26.3463Z" fill="black"/>
<path d="M42.3475 21.6331H45.4308V23.2665C46.6979 22.1461 47.723 21.4531 49.5058 21.4531V24.7155C49.2052 24.5922 48.9037 24.5319 48.5698 24.5319C47.2712 24.5319 45.4308 25.3463 45.4308 27.8554V36.9468H42.3475V21.6331Z" fill="black"/>
<path d="M53.8254 38.7278C53.8569 39.4522 54.3996 40.237 55.4562 40.237C56.4524 40.237 56.8736 39.5413 56.8736 38.5748V35.5563H56.8151C56.1509 36.5526 55.1844 37.1258 53.9469 37.1258C52.7086 37.1258 51.8014 36.675 51.2588 35.6769C50.8952 35.0118 50.7431 34.0768 50.7431 32.3849V26.555C50.7431 24.351 50.8349 23.4753 51.2273 22.8418C51.7421 22.0255 52.4962 21.4531 53.9757 21.4531C55.4877 21.4531 56.0906 22.1461 56.8736 23.0244V21.6331H59.955V38.8187C59.955 40.903 58.5943 43.3193 55.3347 43.3193C53.4628 43.3193 51.1373 42.2304 50.7431 38.7278H53.8254ZM53.8254 32.2346C53.8254 33.2011 54.1575 34.0444 55.3347 34.0444C56.2103 34.0444 56.8736 33.3541 56.8736 32.3849V26.4362C56.8736 25.3193 56.2724 24.5319 55.3347 24.5319C54.2772 24.5319 53.8254 25.3778 53.8254 26.6171V32.2346Z" fill="black"/>
<path d="M62.491 21.6331H65.5725V23.1144H65.631C66.2672 22.1461 67.1132 21.4531 68.5324 21.4531C69.8617 21.4531 70.7373 22.2379 71.2773 22.9938C72.0369 22.1461 72.8495 21.4531 74.482 21.4531C76.0219 21.4531 77.8326 22.4485 77.8326 25.1978V36.9468H74.7511V26.3462C74.7511 25.2293 74.2102 24.5319 73.2419 24.5319C72.0954 24.5319 71.703 25.2896 71.703 26.6486V36.9468H68.6224V26.3462C68.6224 25.2293 68.0788 24.5319 67.1132 24.5319C65.9667 24.5319 65.5725 25.2896 65.5725 26.6486V36.9468H62.491V21.6331Z" fill="black"/>
<path d="M39.9289 14.3707V11.7563C39.9289 10.9949 40.4995 10.5999 41.0655 10.5999C41.6289 10.5999 42.2031 10.9949 42.2031 11.7563C42.2031 11.7563 42.2031 11.8859 42.2031 11.9525C42.1194 11.9525 41.6829 11.9525 41.5992 11.9525C41.5992 11.8859 41.5992 11.7563 41.5992 11.7563C41.5992 11.4188 41.3886 11.2019 41.0655 11.2019C40.7416 11.2019 40.5328 11.4188 40.5328 11.7563V14.3707C40.5328 14.7081 40.7416 14.925 41.0655 14.925C41.3886 14.925 41.5992 14.7081 41.5992 14.3707V13.3852C41.5992 13.3852 41.1213 13.3852 41.034 13.3852C41.034 13.3051 41.034 12.946 41.034 12.8668C41.1276 12.8668 42.1086 12.8668 42.2031 12.8668C42.2031 12.9649 42.2031 14.3707 42.2031 14.3707C42.2031 15.132 41.6289 15.5271 41.0655 15.5271C40.4995 15.5271 39.9289 15.132 39.9289 14.3707Z" fill="black"/>
<path d="M44.7429 10.6184C44.6061 10.7624 43.9501 11.4644 43.9213 11.4932C43.8898 11.4932 43.6936 11.4932 43.5829 11.4932C43.6666 11.36 44.113 10.6607 44.1418 10.6184C44.1859 10.6184 44.5782 10.6184 44.7429 10.6184Z" fill="black"/>
<path d="M43.0587 15.0485C42.975 14.8928 42.9336 14.6669 42.9336 14.3582V13.1946C42.9336 12.8859 42.975 12.6591 43.0587 12.5043C43.227 12.1992 43.5465 12.0255 43.937 12.0255C44.5283 12.0255 44.9432 12.4539 44.9432 13.0704C44.9432 13.0704 44.9432 13.8965 44.9432 13.9919C44.8451 13.9919 43.5366 13.9919 43.5366 13.9919V14.5229C43.5366 14.7713 43.6905 14.9252 43.937 14.9252C44.0936 14.9252 44.279 14.855 44.3258 14.5706C44.3924 14.5706 44.8352 14.5706 44.9333 14.5706C44.9225 14.8253 44.8325 15.0656 44.6723 15.2321C44.4824 15.4282 44.2358 15.5272 43.937 15.5272C43.5465 15.5272 43.227 15.3535 43.0587 15.0485ZM43.5366 13.0848V13.5401H44.3402V13.0848C44.3402 12.7986 44.1881 12.6258 43.937 12.6258C43.6869 12.6258 43.5366 12.7986 43.5366 13.0848Z" fill="black"/>
<path d="M45.7374 15.0485C45.6537 14.8919 45.6123 14.6606 45.6123 14.3582V13.1946C45.6123 12.8886 45.6537 12.6627 45.7374 12.5043C45.9039 12.1992 46.2252 12.0255 46.6185 12.0255C47.0099 12.0255 47.3303 12.1992 47.4968 12.5043C47.5805 12.6591 47.6219 12.8877 47.6219 13.1946V14.3582C47.6219 14.6669 47.5805 14.8919 47.4968 15.0485C47.3303 15.3535 47.0099 15.5272 46.6185 15.5272C46.2252 15.5272 45.9039 15.3535 45.7374 15.0485ZM46.2171 13.0848V14.468C46.2171 14.7542 46.3674 14.9252 46.6185 14.9252C46.8668 14.9252 47.0171 14.7542 47.0171 14.468V13.0848C47.0171 12.7986 46.8668 12.6258 46.6185 12.6258C46.3674 12.6258 46.2171 12.7986 46.2171 13.0848Z" fill="black"/>
<path d="M49.6424 14.5309C49.6424 14.2987 49.5245 14.1547 49.2509 14.0512L48.9098 13.9252C48.4716 13.7605 48.2277 13.4311 48.2277 13.0009C48.2277 12.4538 48.6624 12.0254 49.2176 12.0254C49.7432 12.0254 50.1248 12.4124 50.1563 12.9487C50.0609 12.9487 49.6622 12.9487 49.5965 12.9487C49.5659 12.7337 49.4093 12.5852 49.1915 12.5852C48.9305 12.5852 48.791 12.7967 48.791 12.9928C48.791 13.1386 48.8288 13.2889 49.1231 13.4059L49.5407 13.5706C49.9853 13.7416 50.2022 14.0512 50.2022 14.5165C50.2022 15.0843 49.7603 15.5271 49.1978 15.5271C48.63 15.5271 48.2511 15.1509 48.2043 14.5705C48.3033 14.5705 48.7074 14.5705 48.7685 14.5705C48.8324 14.8899 49.0295 14.9655 49.1915 14.9655C49.4129 14.9655 49.6424 14.8027 49.6424 14.5309Z" fill="black"/>
<path d="M50.9706 15.0483C50.8851 14.8917 50.8437 14.6668 50.8437 14.3581V13.1944C50.8437 12.8875 50.8851 12.659 50.9706 12.5042C51.1371 12.1991 51.4566 12.0254 51.8489 12.0254C52.4312 12.0254 52.82 12.4349 52.8443 13.045C52.7489 13.045 52.3106 13.045 52.2395 13.045C52.2161 12.6914 51.9911 12.6257 51.8489 12.6257C51.5979 12.6257 51.4476 12.7985 51.4476 13.0846V14.5228C51.4476 14.7712 51.6006 14.925 51.8489 14.925C52.0037 14.925 52.1891 14.8548 52.2368 14.5705C52.3016 14.5705 52.748 14.5705 52.8425 14.5705C52.8326 14.8234 52.7426 15.0636 52.5833 15.2319C52.3952 15.4281 52.1468 15.5271 51.8489 15.5271C51.4566 15.5271 51.1371 15.3534 50.9706 15.0483Z" fill="black"/>
<path d="M54.0495 10.6392C54.0495 10.7229 54.0495 11.1611 54.0495 11.243C53.9658 11.243 53.5293 11.243 53.4465 11.243C53.4465 11.1611 53.4465 10.7229 53.4465 10.6392C53.5293 10.6392 53.9658 10.6392 54.0495 10.6392Z" fill="black"/>
<path d="M54.0495 12.0647C54.0495 12.1673 54.0495 15.3864 54.0495 15.4863C53.9658 15.4863 53.5293 15.4863 53.4465 15.4863C53.4465 15.3864 53.4465 12.1673 53.4465 12.0647C53.5293 12.0647 53.9658 12.0647 54.0495 12.0647Z" fill="black"/>
<path d="M54.8723 15.0483C54.7886 14.8917 54.7472 14.6668 54.7472 14.3581V13.1944C54.7472 12.8875 54.7886 12.659 54.8723 12.5042C55.0388 12.1991 55.3601 12.0254 55.7524 12.0254C56.3437 12.0254 56.7568 12.4538 56.7568 13.0702C56.7568 13.0702 56.7568 13.8964 56.7568 13.9918C56.6605 13.9918 55.352 13.9918 55.352 13.9918V14.5228C55.352 14.7712 55.505 14.925 55.7524 14.925C55.909 14.925 56.0926 14.8548 56.1394 14.5705C56.206 14.5705 56.6506 14.5705 56.7469 14.5705C56.7343 14.8252 56.6479 15.0654 56.4859 15.2319C56.296 15.4281 56.0476 15.5271 55.7524 15.5271C55.3601 15.5271 55.0388 15.3534 54.8723 15.0483ZM55.352 13.0846V13.54H56.152V13.0846C56.152 12.7985 56.0017 12.6257 55.7524 12.6257C55.5023 12.6257 55.352 12.7985 55.352 13.0846Z" fill="black"/>
<path d="M62.9013 15.0485C62.814 14.8919 62.7744 14.6669 62.7744 14.3582V13.1946C62.7744 12.8877 62.814 12.6591 62.9013 12.5043C63.0642 12.1992 63.3855 12.0255 63.7779 12.0255C64.3691 12.0255 64.784 12.4539 64.784 13.0704C64.784 13.0704 64.784 13.8965 64.784 13.9919C64.6859 13.9919 63.3792 13.9919 63.3792 13.9919V14.5229C63.3792 14.7713 63.5313 14.9252 63.7779 14.9252C63.9345 14.9252 64.118 14.855 64.1666 14.5706C64.2314 14.5706 64.676 14.5706 64.7741 14.5706C64.7597 14.8253 64.6733 15.0656 64.5131 15.2321C64.3223 15.4282 64.0766 15.5272 63.7779 15.5272C63.3855 15.5272 63.0642 15.3535 62.9013 15.0485ZM63.3792 13.0848V13.5401H64.1792V13.0848C64.1792 12.7986 64.0289 12.6258 63.7779 12.6258C63.5277 12.6258 63.3792 12.7986 63.3792 13.0848Z" fill="black"/>
<path d="M58.1657 12.3827C58.3304 12.1343 58.523 12.0254 58.7921 12.0254C59.1196 12.0254 59.4697 12.2369 59.4697 12.8345C59.4697 12.8345 59.4697 15.3831 59.4697 15.4866C59.3851 15.4866 58.9487 15.4866 58.865 15.4866C58.865 15.3867 58.865 13.099 58.865 13.099C58.865 12.8084 58.712 12.6257 58.4645 12.6257C58.1009 12.6257 58.0586 12.9361 58.0586 13.1683C58.0586 13.1683 58.0586 15.3867 58.0586 15.4866C57.974 15.4866 57.5357 15.4866 57.452 15.4866C57.452 15.3867 57.452 12.1676 57.452 12.065C57.5357 12.065 57.974 12.065 58.0586 12.065C58.0586 12.1424 58.0586 12.5294 58.0586 12.5294L58.1657 12.3827Z" fill="black"/>
<path d="M60.3613 15.0485C60.2776 14.8919 60.2344 14.6606 60.2344 14.3582V13.1946C60.2344 12.8886 60.2758 12.6627 60.3613 12.5043C60.5269 12.1992 60.8481 12.0255 61.2405 12.0255C61.8228 12.0255 62.2134 12.435 62.2359 13.0452C62.1405 13.0452 61.7058 13.0452 61.6347 13.0452C61.6158 12.7815 61.4781 12.6258 61.2405 12.6258C60.9912 12.6258 60.8409 12.7986 60.8409 13.0848V14.5229C60.8409 14.7713 60.9939 14.9252 61.2405 14.9252C61.461 14.9252 61.5933 14.7965 61.6302 14.5706C61.6977 14.5706 62.1378 14.5706 62.2359 14.5706C62.2233 14.8253 62.1342 15.0656 61.9731 15.2321C61.785 15.4282 61.5384 15.5272 61.2405 15.5272C60.8481 15.5272 60.5269 15.3535 60.3613 15.0485Z" fill="black"/>
<path d="M66.8037 14.5309C66.8037 14.2987 66.6876 14.1547 66.4158 14.0512L66.0711 13.9252C65.6329 13.7605 65.3908 13.4311 65.3908 13.0009C65.3908 12.4538 65.8272 12.0254 66.3825 12.0254C66.9063 12.0254 67.2888 12.4124 67.3212 12.9487C67.224 12.9487 66.8244 12.9487 66.7578 12.9487C66.7308 12.7337 66.5724 12.5852 66.3546 12.5852C66.0945 12.5852 65.9523 12.7967 65.9523 12.9928C65.9523 13.1386 65.9946 13.2889 66.2862 13.4059L66.7038 13.5706C67.1511 13.7416 67.3653 14.0512 67.3653 14.5165C67.3653 15.0843 66.9234 15.5271 66.3618 15.5271C65.7957 15.5271 65.416 15.1509 65.3674 14.5705C65.4655 14.5705 65.8704 14.5705 65.9334 14.5705C65.9964 14.8899 66.1944 14.9655 66.3546 14.9655C66.576 14.9655 66.8037 14.8027 66.8037 14.5309Z" fill="black"/>
<path d="M77.0072 12.0647C77.0072 12.1673 77.0072 15.3864 77.0072 15.4863C76.9226 15.4863 76.4861 15.4863 76.4042 15.4863C76.4042 15.4098 76.4042 15.021 76.4042 15.021L76.2917 15.1695C76.1288 15.4161 75.9371 15.5268 75.6689 15.5268C75.3396 15.5268 74.9913 15.3135 74.9913 14.7169C74.9913 14.7169 74.9913 12.1673 74.9913 12.0647C75.0723 12.0647 75.5123 12.0647 75.596 12.0647C75.596 12.1673 75.596 14.455 75.596 14.455C75.596 14.7439 75.749 14.9248 75.9947 14.9248C76.3601 14.9248 76.4042 14.6161 76.4042 14.3848C76.4042 14.3848 76.4042 12.1673 76.4042 12.0647C76.4861 12.0647 76.9226 12.0647 77.0072 12.0647Z" fill="black"/>
<path d="M73.2874 15.5272C73.6816 15.5272 74.0011 15.3535 74.1658 15.0485C74.2495 14.8919 74.2935 14.6606 74.2935 14.3582V13.1946C74.2935 12.8886 74.2522 12.6627 74.1658 12.5043C74.0011 12.1992 73.6816 12.0255 73.2874 12.0255C72.8968 12.0255 72.5755 12.1992 72.409 12.5043C72.3253 12.6591 72.2812 12.8877 72.2812 13.1946V14.3582C72.2812 14.6669 72.3253 14.8919 72.409 15.0485C72.5755 15.3535 72.8968 15.5272 73.2874 15.5272ZM73.2874 12.6258C73.5394 12.6258 73.6888 12.7986 73.6888 13.0848V14.468C73.6888 14.7542 73.5394 14.9252 73.2874 14.9252C73.0372 14.9252 72.8869 14.7542 72.8869 14.468V13.0848C72.8869 12.7986 73.0372 12.6258 73.2874 12.6258Z" fill="black"/>
<path d="M70.2706 12.3639C70.4478 12.1677 70.5729 12.0255 70.9014 12.0255C71.1741 12.0255 71.3604 12.1227 71.4747 12.3306C71.5548 12.4764 71.5863 12.6879 71.5863 13.0632V14.4059C71.5863 14.9252 71.5629 15.1034 71.4837 15.2348C71.3541 15.4408 71.1768 15.5272 70.8951 15.5272C70.6449 15.5272 70.4334 15.412 70.285 15.1907L70.1869 15.0467L70.1743 15.2204C70.1743 15.2204 70.1743 16.8133 70.1743 16.9114C70.0897 16.9114 69.655 16.9114 69.5713 16.9114C69.5713 16.8088 69.5713 12.1677 69.5713 12.0651C69.655 12.0651 70.0897 12.0651 70.1743 12.0651C70.1743 12.1389 70.1743 12.4728 70.1743 12.4728L70.2706 12.3639ZM70.1743 13.1181V14.4878C70.1743 14.738 70.3498 14.9252 70.5819 14.9252C70.8402 14.9252 70.9824 14.7569 70.9824 14.4554V13.1613C70.9824 12.822 70.8366 12.6258 70.5819 12.6258C70.3417 12.6258 70.1743 12.8283 70.1743 13.1181Z" fill="black"/>
<path d="M78.4578 12.4286C78.7448 12.1739 78.9653 12.0425 79.3082 12.0299C79.3082 12.1199 79.3082 12.5627 79.3082 12.6581C79.2407 12.6455 79.1453 12.6257 79.1453 12.6257C78.7718 12.6257 78.3705 12.884 78.3705 13.4455C78.3705 13.4455 78.3705 15.3867 78.3705 15.4866C78.2868 15.4866 77.8503 15.4866 77.7657 15.4866C77.7657 15.3867 77.7657 12.1676 77.7657 12.065C77.8503 12.065 78.2868 12.065 78.3705 12.065C78.3705 12.1433 78.3705 12.506 78.3705 12.506L78.4578 12.4286Z" fill="black"/>
<path d="M83.1844 12.0647C83.1844 12.1673 83.1844 15.3864 83.1844 15.4863C83.1007 15.4863 82.6643 15.4863 82.5797 15.4863C82.5797 15.4098 82.5797 15.0228 82.5797 15.0228L82.469 15.1695C82.3052 15.4161 82.1135 15.5268 81.8462 15.5268C81.5168 15.5268 81.1658 15.3135 81.1658 14.7169C81.1658 14.7169 81.1658 12.1673 81.1658 12.0647C81.2495 12.0647 81.6896 12.0647 81.7697 12.0647C81.7697 12.1673 81.7697 14.455 81.7697 14.455C81.7697 14.7439 81.9254 14.9248 82.172 14.9248C82.5374 14.9248 82.5797 14.6161 82.5797 14.3848C82.5797 14.3848 82.5797 12.1673 82.5797 12.0647C82.6643 12.0647 83.1007 12.0647 83.1844 12.0647Z" fill="black"/>
<path d="M84.659 12.3827C84.8201 12.1343 85.0154 12.0254 85.2845 12.0254C85.6112 12.0254 85.9613 12.2369 85.9613 12.8345C85.9613 12.8345 85.9613 15.3831 85.9613 15.4866C85.8758 15.4866 85.4393 15.4866 85.3556 15.4866C85.3556 15.3867 85.3556 13.099 85.3556 13.099C85.3556 12.8084 85.2017 12.6257 84.9533 12.6257C84.5897 12.6257 84.5483 12.9361 84.5483 13.1683C84.5483 13.1683 84.5483 15.3867 84.5483 15.4866C84.4646 15.4866 84.0282 15.4866 83.9445 15.4866C83.9445 15.3867 83.9445 12.1676 83.9445 12.065C84.0282 12.065 84.4646 12.065 84.5483 12.065C84.5483 12.1424 84.5483 12.5312 84.5483 12.5312L84.659 12.3827Z" fill="black"/>
<path d="M92.5558 10.6392C92.5558 10.7211 92.5558 11.1197 92.5558 11.2016C92.4622 11.2016 91.735 11.2016 91.735 11.2016C91.735 11.2016 91.735 15.3828 91.735 15.4863C91.6513 15.4863 91.2131 15.4863 91.1294 15.4863C91.1294 15.3828 91.1294 11.2016 91.1294 11.2016C91.1294 11.2016 90.4013 11.2016 90.3095 11.2016C90.3095 11.1197 90.3095 10.7211 90.3095 10.6392C90.4094 10.6392 92.4559 10.6392 92.5558 10.6392Z" fill="black"/>
<path d="M95.871 12.4286C96.1626 12.1739 96.3812 12.0425 96.7241 12.0299C96.7241 12.1199 96.7241 12.5627 96.7241 12.6581C96.6548 12.6455 96.5612 12.6257 96.5612 12.6257C96.1878 12.6257 95.7846 12.884 95.7846 13.4455C95.7846 13.4455 95.7846 15.3867 95.7846 15.4866C95.7009 15.4866 95.2644 15.4866 95.1798 15.4866C95.1798 15.3867 95.1798 12.1676 95.1798 12.065C95.2644 12.065 95.7009 12.065 95.7846 12.065C95.7846 12.1433 95.7846 12.506 95.7846 12.506L95.871 12.4286Z" fill="black"/>
<path d="M97.8074 12.4286C98.0954 12.1739 98.3141 12.0425 98.6587 12.0299C98.6587 12.1199 98.6587 12.5627 98.6587 12.6581C98.5876 12.6455 98.4922 12.6257 98.4922 12.6257C98.1206 12.6257 97.7192 12.884 97.7192 13.4455C97.7192 13.4455 97.7192 15.3867 97.7192 15.4866C97.6355 15.4866 97.1981 15.4866 97.1162 15.4866C97.1162 15.3867 97.1162 12.1676 97.1162 12.065C97.1981 12.065 97.6355 12.065 97.7192 12.065C97.7192 12.1433 97.7192 12.506 97.7192 12.506L97.8074 12.4286Z" fill="black"/>
<path d="M107.988 12.0646C107.988 12.1672 107.988 15.3863 107.988 15.4862C107.903 15.4862 107.466 15.4862 107.381 15.4862C107.381 15.4097 107.381 15.0227 107.381 15.0227L107.272 15.1694C107.109 15.416 106.917 15.5267 106.646 15.5267C106.322 15.5267 105.972 15.3134 105.972 14.7167C105.972 14.7167 105.972 12.1672 105.972 12.0646C106.055 12.0646 106.491 12.0646 106.575 12.0646C106.575 12.1672 106.575 14.4549 106.575 14.4549C106.575 14.7437 106.728 14.9246 106.976 14.9246C107.339 14.9246 107.381 14.6159 107.381 14.3847C107.381 14.3847 107.381 12.1672 107.381 12.0646C107.466 12.0646 107.903 12.0646 107.988 12.0646Z" fill="black"/>
<path d="M105.211 10.6393C105.211 10.7419 105.211 15.3829 105.211 15.4864C105.127 15.4864 104.69 15.4864 104.606 15.4864C104.606 15.4117 104.606 15.0824 104.606 15.0824L104.51 15.1904C104.333 15.3865 104.206 15.5269 103.877 15.5269C103.605 15.5269 103.418 15.4279 103.306 15.2219C103.227 15.0752 103.192 14.8646 103.192 14.4875V13.1466C103.192 12.6354 103.218 12.4491 103.298 12.3177C103.426 12.1116 103.604 12.0252 103.886 12.0252C104.138 12.0252 104.35 12.1422 104.496 12.3636L104.594 12.5085L104.606 12.333C104.606 12.333 104.606 10.7383 104.606 10.6393C104.69 10.6393 105.127 10.6393 105.211 10.6393ZM103.798 13.0989V14.3894C103.798 14.7296 103.944 14.9249 104.199 14.9249C104.443 14.9249 104.606 14.7287 104.606 14.4344V13.0629C104.606 12.8145 104.431 12.6255 104.199 12.6255C104.017 12.6255 103.798 12.7083 103.798 13.0989Z" fill="black"/>
<path d="M109.439 12.4286C109.728 12.1739 109.948 12.0425 110.289 12.0299C110.289 12.1199 110.289 12.5627 110.289 12.6581C110.22 12.6455 110.126 12.6257 110.126 12.6257C109.753 12.6257 109.352 12.884 109.352 13.4455C109.352 13.4455 109.352 15.3867 109.352 15.4866C109.268 15.4866 108.83 15.4866 108.746 15.4866C108.746 15.3867 108.746 12.1676 108.746 12.065C108.83 12.065 109.268 12.065 109.352 12.065C109.352 12.1433 109.352 12.506 109.352 12.506L109.439 12.4286Z" fill="black"/>
<path d="M110.842 12.3062C111.026 12.1217 111.281 12.0254 111.576 12.0254C112.065 12.0254 112.588 12.3017 112.588 13.0846C112.588 13.0846 112.588 15.3867 112.588 15.4866C112.504 15.4866 112.065 15.4866 111.982 15.4866C111.981 15.4101 111.973 15.0195 111.973 15.0195L111.88 15.1464C111.69 15.4056 111.546 15.5271 111.235 15.5271C110.91 15.5271 110.523 15.3741 110.523 14.6416C110.523 13.9 110.694 13.4977 111.592 13.4977L111.757 13.5076L111.984 13.5229L111.982 13.4662V13.099C111.982 12.794 111.838 12.6257 111.576 12.6257C111.364 12.6257 111.193 12.7733 111.135 12.982C111.076 12.982 110.649 12.982 110.551 12.982C110.578 12.7103 110.674 12.4745 110.842 12.3062ZM111.125 14.5039C111.125 14.809 111.291 15.0087 111.546 15.0087C111.817 15.0087 111.982 14.8153 111.982 14.5039V13.9774L111.736 13.9486C111.343 13.9486 111.125 14.1466 111.125 14.5039Z" fill="black"/>
<path d="M113.889 10.6393C113.889 10.7383 113.889 12.5085 113.889 12.5085L114 12.3636C114.147 12.1422 114.358 12.0252 114.609 12.0252C114.892 12.0252 115.07 12.1116 115.197 12.3186C115.278 12.4491 115.3 12.6255 115.3 13.1466V14.4875C115.3 14.8646 115.267 15.0761 115.188 15.2219C115.077 15.4279 114.891 15.5269 114.615 15.5269C114.288 15.5269 114.162 15.3865 113.987 15.1904L113.895 15.0878L113.889 15.2201C113.889 15.2201 113.889 15.4117 113.889 15.4864C113.805 15.4864 113.367 15.4864 113.283 15.4864C113.283 15.3829 113.283 10.7419 113.283 10.6393C113.367 10.6393 113.805 10.6393 113.889 10.6393ZM113.889 13.0629V14.4344C113.889 14.7287 114.054 14.9249 114.297 14.9249C114.55 14.9249 114.696 14.7296 114.696 14.3894V13.0989C114.696 12.7083 114.477 12.6255 114.297 12.6255C114.063 12.6255 113.889 12.8145 113.889 13.0629Z" fill="black"/>
<path d="M116.535 10.6901C116.535 10.7927 116.535 14.5959 116.535 14.5959C116.535 14.8668 116.628 14.9711 116.885 15.0071C116.885 15.0764 116.885 15.4913 116.885 15.5768C116.282 15.5669 115.932 15.4022 115.932 14.6445C115.932 14.6445 115.932 10.7927 115.932 10.6901C116.016 10.6901 116.451 10.6901 116.535 10.6901Z" fill="black"/>
<path d="M117.453 15.0483C117.369 14.8917 117.326 14.6605 117.326 14.3581V13.1944C117.326 12.8884 117.368 12.6626 117.453 12.5042C117.619 12.1991 117.938 12.0254 118.331 12.0254C118.923 12.0254 119.335 12.4538 119.335 13.0702C119.335 13.0702 119.335 13.8964 119.335 13.9918C119.238 13.9918 117.929 13.9918 117.929 13.9918V14.5228C117.929 14.7712 118.082 14.925 118.331 14.925C118.551 14.925 118.684 14.7964 118.72 14.5705C118.786 14.5705 119.231 14.5705 119.326 14.5705C119.315 14.8252 119.226 15.0654 119.065 15.2319C118.875 15.4281 118.63 15.5271 118.331 15.5271C117.938 15.5271 117.619 15.3534 117.453 15.0483ZM117.929 13.0846V13.54H118.731V13.0846C118.731 12.7985 118.581 12.6257 118.331 12.6257C118.08 12.6257 117.929 12.7985 117.929 13.0846Z" fill="black"/>
<path d="M99.1808 15.0485C99.0971 14.8919 99.0557 14.6606 99.0557 14.3582V13.1946C99.0557 12.8886 99.0971 12.6627 99.1808 12.5043C99.3464 12.1992 99.6676 12.0255 100.062 12.0255C100.653 12.0255 101.064 12.4539 101.064 13.0704C101.064 13.0704 101.064 13.8965 101.064 13.9919C100.97 13.9919 99.6613 13.9919 99.6613 13.9919V14.5229C99.6613 14.7713 99.8152 14.9252 100.062 14.9252C100.281 14.9252 100.413 14.7965 100.45 14.5706C100.517 14.5706 100.959 14.5706 101.057 14.5706C101.045 14.8253 100.954 15.0656 100.796 15.2321C100.604 15.4282 100.359 15.5272 100.062 15.5272C99.6676 15.5272 99.3464 15.3535 99.1808 15.0485ZM99.6613 13.0848V13.5401H100.462V13.0848C100.462 12.7986 100.312 12.6258 100.062 12.6258C99.8107 12.6258 99.6613 12.7986 99.6613 13.0848Z" fill="black"/>
<path d="M92.5999 15.0483C92.5162 14.8917 92.4757 14.6605 92.4757 14.3581V13.1944C92.4757 12.8884 92.5144 12.6626 92.5999 12.5042C92.7664 12.1991 93.0859 12.0254 93.4801 12.0254C94.0713 12.0254 94.4844 12.4538 94.4844 13.0702C94.4844 13.0702 94.4844 13.8964 94.4844 13.9918C94.3863 13.9918 93.0778 13.9918 93.0778 13.9918V14.5228C93.0778 14.7712 93.2317 14.925 93.4801 14.925C93.6996 14.925 93.8337 14.7964 93.8688 14.5705C93.9354 14.5705 94.3782 14.5705 94.4745 14.5705C94.4619 14.8252 94.3755 15.0654 94.2126 15.2319C94.0236 15.4281 93.7752 15.5271 93.4801 15.5271C93.0859 15.5271 92.7664 15.3534 92.5999 15.0483ZM93.0778 13.0846V13.54H93.8796V13.0846C93.8796 12.7985 93.7293 12.6257 93.4801 12.6257C93.2299 12.6257 93.0778 12.7985 93.0778 13.0846Z" fill="black"/>
<path d="M86.7813 15.0485C86.6958 14.8919 86.6553 14.6606 86.6553 14.3582V13.1946C86.6553 12.8886 86.6958 12.6627 86.7813 12.5043C86.9478 12.1992 87.269 12.0255 87.6614 12.0255C88.2545 12.0255 88.6658 12.4539 88.6658 13.0704C88.6658 13.0704 88.6658 13.8965 88.6658 13.9919C88.5677 13.9919 87.2591 13.9919 87.2591 13.9919V14.5229C87.2591 14.7713 87.413 14.9252 87.6614 14.9252C87.8792 14.9252 88.0124 14.7965 88.0484 14.5706C88.1168 14.5706 88.5596 14.5706 88.6577 14.5706C88.6433 14.8253 88.5533 15.0656 88.3949 15.2321C88.205 15.4282 87.9584 15.5272 87.6614 15.5272C87.269 15.5272 86.9478 15.3535 86.7813 15.0485ZM87.2591 13.0848V13.5401H88.061V13.0848C88.061 12.7986 87.9107 12.6258 87.6614 12.6258C87.4094 12.6258 87.2591 12.7986 87.2591 13.0848Z" fill="black"/>
</svg>
