<svg width="29" height="26" viewBox="0 0 29 26" fill="none" xmlns="http://www.w3.org/2000/svg">
<g clip-path="url(#clip0_1_629)">
<path d="M23.7289 17.4512C23.6263 16.5917 23.3954 15.7836 23.0619 15.014C26.0892 14.1417 28.3211 11.3454 28.3211 8.03598C28.3211 4.02105 25.063 0.762939 21.048 0.762939C17.0331 0.762939 13.775 4.02105 13.775 8.03598C13.775 8.60037 13.8391 9.13912 13.9674 9.66503C11.62 9.90875 9.47789 11.0504 7.96428 12.8975C7.16899 13.8724 6.59177 15.0012 6.27109 16.2069C2.96166 16.5917 0.383392 19.4137 0.383392 22.8258C0.383392 23.326 0.447528 23.8391 0.562973 24.3394L0.781036 25.2629H25.6787L26.0378 24.8781C26.7946 24.0444 27.2051 22.9669 27.2051 21.8509C27.2051 19.7344 25.73 17.9514 23.7674 17.464L23.7289 17.4512ZM19.8038 3.23859H22.2795V8.17708H19.8038V3.23859ZM19.8038 10.1525H22.2795V12.6153H19.8038V10.1525ZM24.5242 22.8771H2.73077V22.8258C2.73077 20.4656 4.65486 18.5415 7.15617 18.5415L8.22083 18.5928L8.38758 17.5409C8.56716 16.3865 9.04177 15.309 9.78575 14.3983C11.03 12.859 12.8899 11.9868 14.8653 11.9868C14.891 11.9868 14.9166 11.9868 14.9295 11.9868C16.1481 13.8467 18.1876 15.1166 20.535 15.2834C21.0865 16.2326 21.4072 17.3357 21.4072 18.5158L21.4585 19.6959H22.6386C23.8187 19.6959 24.7808 20.658 24.7808 21.8381C24.7808 22.2101 24.691 22.5692 24.5114 22.8899L24.5242 22.8771Z" fill="#7C5AD3"/>
</g>
<defs>
<clipPath id="clip0_1_629">
<rect width="27.9505" height="24.5" fill="white" transform="translate(0.358002 0.75)"/>
</clipPath>
</defs>
</svg>
