<svg width="25" height="26" viewBox="0 0 25 26" fill="none" xmlns="http://www.w3.org/2000/svg">
<g clip-path="url(#clip0_1_610)">
<path d="M10.8082 17.2985L16.1794 12.7126L13.1502 11.4364L14.5526 7.93042L9.20947 12.5023L12.2106 13.7925L10.8082 17.2985Z" fill="#F0722A"/>
<path d="M12.6869 21.2531C8.01685 21.2531 4.21634 17.4525 4.21634 12.7825C4.21634 8.11253 8.01685 4.31201 12.6869 4.31201C17.3569 4.31201 21.1574 8.11253 21.1574 12.7825C21.1574 17.4525 17.3569 21.2531 12.6869 21.2531ZM12.6869 6.55586C9.25097 6.55586 6.46019 9.34664 6.46019 12.7825C6.46019 16.2184 9.25097 19.0092 12.6869 19.0092C16.1228 19.0092 18.9135 16.2184 18.9135 12.7825C18.9135 9.34664 16.1228 6.55586 12.6869 6.55586Z" fill="#F0722A"/>
<path d="M5.28285 11.8435H0.416504V14.1575H5.28285V11.8435Z" fill="#F0722A"/>
<path d="M24.903 11.8435H20.0366V14.1575H24.903V11.8435Z" fill="#F0722A"/>
<path d="M13.8215 5.61634V0.75L11.5076 0.75V5.61634H13.8215Z" fill="#F0722A"/>
<path d="M13.8215 25.2506V20.3843H11.5076V25.2506H13.8215Z" fill="#F0722A"/>
<path d="M18.7026 8.59467L23.77 3.52734L22.1337 1.89112L17.0664 6.95845L18.7026 8.59467Z" fill="#F0722A"/>
<path d="M3.27992 24.0209L8.27783 19.0229L6.64161 17.3867L1.6437 22.3846L3.27992 24.0209Z" fill="#F0722A"/>
<path d="M17.0796 18.961L22.147 24.0283L23.7832 22.3921L18.7159 17.3248L17.0796 18.961Z" fill="#F0722A"/>
<path d="M1.64027 3.53456L6.63818 8.53247L8.27441 6.89625L3.27649 1.89833L1.64027 3.53456Z" fill="#F0722A"/>
</g>
<defs>
<clipPath id="clip0_1_610">
<rect width="24.5" height="24.5" fill="white" transform="translate(0.416504 0.75)"/>
</clipPath>
</defs>
</svg>
