<svg width="22" height="22" viewBox="0 0 22 22" fill="none" xmlns="http://www.w3.org/2000/svg">
<path d="M19.9455 0.180374H2.05039C1.19316 0.180374 0.5 0.857132 0.5 1.69385V19.6628C0.5 20.4995 1.19316 21.1804 2.05039 21.1804H19.9455C20.8027 21.1804 21.5 20.4995 21.5 19.6669V1.69385C21.5 0.857132 20.8027 0.180374 19.9455 0.180374ZM6.73027 18.0755H3.61309V8.05127H6.73027V18.0755ZM5.17168 6.68545C4.1709 6.68545 3.36289 5.87744 3.36289 4.88076C3.36289 3.88408 4.1709 3.07608 5.17168 3.07608C6.16836 3.07608 6.97637 3.88408 6.97637 4.88076C6.97637 5.87334 6.16836 6.68545 5.17168 6.68545ZM18.3951 18.0755H15.282V13.2028C15.282 12.0421 15.2615 10.545 13.6619 10.545C12.0418 10.545 11.7957 11.8124 11.7957 13.1208V18.0755H8.68672V8.05127H11.6727V9.4212H11.7137C12.1279 8.63369 13.1451 7.80108 14.6586 7.80108C17.8127 7.80108 18.3951 9.87647 18.3951 12.5753V18.0755Z" fill="#FAFAFA"/>
</svg>
