<svg width="26" height="26" viewBox="0 0 26 26" fill="none" xmlns="http://www.w3.org/2000/svg">
<g clip-path="url(#clip0_1_598)">
<path d="M13.005 0.75C15.816 0.75 18.4139 1.69487 20.4789 3.29182L22.9835 0.776616V5.88688V7.44392H21.3715H16.3089L18.8935 4.86217C17.2415 3.66445 15.2032 2.94582 13.005 2.94582C7.46281 2.94582 2.95982 7.43061 2.95982 12.98V13.0067H0.748291V12.98C0.748291 6.23289 6.23714 0.75 13.005 0.75Z" fill="#2157DB"/>
<path d="M9.62121 18.5829L7.10326 21.0981C8.75525 22.3091 10.7936 23.0144 13.0051 23.0144C18.5473 23.0144 23.0369 18.543 23.0369 13.0068H25.2485C25.2485 19.754 19.7596 25.2236 12.9918 25.2236C10.1674 25.2236 7.58287 24.2787 5.50457 22.6684L2.93333 25.2369V19.9536V18.5563H4.66525H9.62121V18.5829Z" fill="#2157DB"/>
<path d="M15.6696 19.6077L8.07584 13.14L12.3523 11.3434L10.3806 6.39282L17.9211 12.8472L13.6846 14.6704L15.6696 19.6077Z" fill="#2157DB"/>
</g>
<defs>
<clipPath id="clip0_1_598">
<rect width="24.5" height="24.5" fill="white" transform="translate(0.749802 0.75)"/>
</clipPath>
</defs>
</svg>
