<svg width="28" height="21" viewBox="0 0 28 21" fill="none" xmlns="http://www.w3.org/2000/svg">
<path d="M27.7211 5.07998C27.7211 5.07998 27.4477 3.14951 26.6055 2.30186C25.5391 1.18623 24.3469 1.18076 23.8 1.11514C19.8844 0.830765 14.0055 0.830765 14.0055 0.830765H13.9945C13.9945 0.830765 8.11562 0.830765 4.2 1.11514C3.65313 1.18076 2.46094 1.18623 1.39453 2.30186C0.552344 3.14951 0.284375 5.07998 0.284375 5.07998C0.284375 5.07998 0 7.34951 0 9.61358V11.7355C0 13.9995 0.278906 16.269 0.278906 16.269C0.278906 16.269 0.552344 18.1995 1.38906 19.0472C2.45547 20.1628 3.85547 20.1245 4.47891 20.2448C6.72109 20.4581 14 20.5237 14 20.5237C14 20.5237 19.8844 20.5128 23.8 20.2339C24.3469 20.1683 25.5391 20.1628 26.6055 19.0472C27.4477 18.1995 27.7211 16.269 27.7211 16.269C27.7211 16.269 28 14.005 28 11.7355V9.61358C28 7.34951 27.7211 5.07998 27.7211 5.07998ZM11.107 14.3112V6.4417L18.6703 10.3901L11.107 14.3112Z" fill="#FAFAFA"/>
</svg>
